# xmcd
#
# Track frame offsets:
#	150
#	19317
#	41274
#	57924
#	79611
#	101574
#	120880
#	138572
#	161511
#	182880
#	197492
#	217621
#
# Disc length: 3187 seconds
#
# Revision: 3
# Processed by: cddbd v1.4PL0 Copyright (c) Steve Scherf et al.
# Submitted via: MusicWizard 6.0.2
#
DISCID=920c710c
DTITLE=Emmylou Harris - Wrecking Ball
DYEAR=1900
DGENRE=Country
TTITLE0=Where Will I Be
TTITLE1=Goodbye
TTITLE2=All My Tears
TTITLE3=Wrecking Ball
TTITLE4=Goin' Back To Harlan
TTITLE5=Deeper Well
TTITLE6=Every Grain Of Sand
TTITLE7=Sweet Old World
TTITLE8=May This Be Love
TTITLE9=Orphan Girl
TTITLE10=Blackhawk
TTITLE11=Waltz Across Texas Tonight
EXTD=
EXTT0=
EXTT1=
EXTT2=
EXTT3=
EXTT4=
EXTT5=
EXTT6=
EXTT7=
EXTT8=
EXTT9=
EXTT10=
EXTT11=
PLAYORDER=
